HIERARCHY
ROOT root
{
	OFFSET 0.000000 0.000000 0.000000
	CHANNELS 6 Xposition Yposition Zposition Zrotation Yrotation Xrotation
	JOINT lhip
	{
		OFFSET 0.058581 -0.082280 -0.017664
		CHANNELS 3 Zrotation Yrotation Xrotation
		JOINT lknee
		{
			OFFSET 0.043451 -0.386469 0.008037
			CHANNELS 3 Zrotation Yrotation Xrotation
			JOINT lankle
			{
				OFFSET -0.014790 -0.426874 -0.037428
				CHANNELS 3 Zrotation Yrotation Xrotation
				JOINT ltoe
				{
					OFFSET 0.041054 -0.060286 0.122042
					CHANNELS 3 Zrotation Yrotation Xrotation
					End Site
					{
						OFFSET 0.000000 0.000000 0.000000
					}
				}
			}
		}
	}
	JOINT rhip
	{
		OFFSET -0.060310 -0.090513 -0.013543
		CHANNELS 3 Zrotation Yrotation Xrotation
		JOINT rknee
		{
			OFFSET -0.043257 -0.383688 -0.004843
			CHANNELS 3 Zrotation Yrotation Xrotation
			JOINT rankle
			{
				OFFSET 0.019056 -0.420046 -0.034562
				CHANNELS 3 Zrotation Yrotation Xrotation
				JOINT rtoe
				{
					OFFSET -0.034840 -0.062106 0.130323
					CHANNELS 3 Zrotation Yrotation Xrotation
					End Site
					{
						OFFSET 0.000000 0.000000 0.000000
					}
				}
			}
		}
	}
	JOINT lowerback
	{
		OFFSET 0.004439 0.124404 -0.038385
		CHANNELS 3 Zrotation Yrotation Xrotation
		JOINT upperback
		{
			OFFSET 0.004488 0.137956 0.026820
			CHANNELS 3 Zrotation Yrotation Xrotation
			JOINT chest
			{
				OFFSET -0.002265 0.056032 0.002855
				CHANNELS 3 Zrotation Yrotation Xrotation
				JOINT lowerneck
				{
					OFFSET -0.013390 0.211636 -0.033468
					CHANNELS 3 Zrotation Yrotation Xrotation
					JOINT upperneck
					{
						OFFSET 0.010113 0.088937 0.050410
						CHANNELS 3 Zrotation Yrotation Xrotation
						End Site
						{
							OFFSET 0.000000 0.000000 0.000000
						}
					}
				}
				JOINT lclavicle
				{
					OFFSET 0.071702 0.114000 -0.018898
					CHANNELS 3 Zrotation Yrotation Xrotation
					JOINT lshoulder
					{
						OFFSET 0.122921 0.045205 -0.019046
						CHANNELS 3 Zrotation Yrotation Xrotation
						JOINT lelbow
						{
							OFFSET 0.255332 -0.015649 -0.022946
							CHANNELS 3 Zrotation Yrotation Xrotation
							JOINT lwrist
							{
								OFFSET 0.265709 0.012698 -0.007375
								CHANNELS 3 Zrotation Yrotation Xrotation
								End Site
								{
									OFFSET 0.000000 0.000000 0.000000
								}
							}
						}
					}
				}
				JOINT rclavicle
				{
					OFFSET -0.082954 0.112472 -0.023707
					CHANNELS 3 Zrotation Yrotation Xrotation
					JOINT rshoulder
					{
						OFFSET -0.113228 0.046853 -0.008472
						CHANNELS 3 Zrotation Yrotation Xrotation
						JOINT relbow
						{
							OFFSET -0.260127 -0.014369 -0.031269
							CHANNELS 3 Zrotation Yrotation Xrotation
							JOINT rwrist
							{
								OFFSET -0.269108 0.006794 -0.006027
								CHANNELS 3 Zrotation Yrotation Xrotation
								End Site
								{
									OFFSET 0.000000 0.000000 0.000000
								}
							}
						}
					}
				}
			}
		}
	}
}
MOTION
Frames: 17
Frame Time: 0.033333
0.013379 -0.909814 1.239554 3.946086 6.553097 35.945833 -2.461343 -4.873243 -8.281415 -2.344218 -6.061893 8.315525 -2.548606 15.251811 7.803974 0.000000 -0.000000 0.000000 2.181934 -1.928910 -4.796041 1.208059 5.802374 2.553391 2.651108 -12.370115 6.959252 0.000000 -0.000000 0.000000 -0.332207 2.558714 0.716848 0.200720 -5.975786 -7.201485 -0.524204 0.643863 5.861489 -14.032686 -6.263484 47.055964 4.088291 -5.023343 8.310536 36.425871 -12.516330 -24.379866 35.979954 -45.731472 -54.660691 35.599352 -10.385526 -41.612678 -19.638632 2.985178 -5.152965 -39.443968 6.038005 -23.406199 -17.802080 36.889943 -44.945156 -30.985626 16.423483 -43.408134 36.006258 1.906875 -24.961800 
0.011362 -0.909873 1.230223 3.742703 6.575120 36.401962 -2.608948 -4.643339 -7.184322 -2.412061 -5.694901 9.278561 -2.333931 15.782437 6.705941 0.000000 -0.000000 0.000000 2.228673 -1.732379 -4.239519 0.905175 5.906133 3.661390 3.136793 -12.550501 6.549311 0.000000 -0.000000 0.000000 -0.187275 2.567613 0.610821 0.004680 -5.906893 -7.221984 -0.653121 0.732152 5.544090 -14.174498 -6.087816 48.026667 4.609769 -5.525692 8.090695 36.852851 -13.391498 -24.773958 38.431117 -45.115490 -56.307906 32.230720 -8.277138 -39.098311 -20.484968 1.823770 -3.238498 -40.267303 6.913446 -23.479347 -16.462622 35.243589 -44.378957 -29.766295 16.814016 -43.798390 36.752184 2.601167 -22.599626 
0.009201 -0.905380 1.215274 3.611480 6.632024 37.297916 -2.449718 -4.378102 -7.094367 -3.152628 -4.944627 11.739141 -1.941314 16.512008 4.331626 0.000000 -0.000000 0.000000 1.593076 -1.747505 -4.607401 2.177770 5.875351 6.198586 2.710979 -12.730257 5.282618 0.000000 -0.000000 0.000000 -0.166431 2.662788 0.147647 0.267427 -5.840840 -7.460779 -0.680312 0.812474 5.938001 -14.227222 -6.367482 48.216341 4.396374 -6.374312 7.812609 38.477937 -13.915584 -25.056783 37.399895 -43.580939 -55.441541 30.440025 -7.295635 -39.552460 -19.802610 1.949725 -1.947987 -41.040985 7.470820 -24.163109 -18.143694 34.788395 -44.881059 -26.801063 14.173983 -41.930588 35.605781 2.048540 -20.822856 
0.006777 -0.893541 1.196080 3.549785 6.557517 37.894060 -2.479749 -4.783203 -6.837849 -3.754701 -4.544253 15.007911 -1.084063 17.135353 2.168945 0.000000 -0.000000 0.000000 1.484667 -1.283541 -4.733959 2.529972 5.272870 9.571866 3.437339 -13.556696 2.923443 0.000000 -0.000000 0.000000 -0.242415 2.694468 0.591227 0.425364 -5.834248 -7.391425 -0.808480 0.427972 5.813927 -13.571235 -6.120226 48.053675 3.885617 -7.486681 7.671381 39.984168 -14.521999 -25.856465 37.056106 -42.895017 -54.919155 28.460578 -4.954262 -38.211366 -20.391463 1.296740 -0.193926 -42.047942 8.050785 -25.116320 -17.584262 35.058536 -43.935642 -25.574386 12.627337 -40.825531 34.129765 2.546875 -20.898887 
0.004962 -0.874515 1.173444 3.645732 6.632469 38.361137 -2.414299 -5.298838 -6.839376 -4.667539 -3.931274 19.650358 -0.766198 17.467879 -1.341026 0.000000 -0.000000 0.000000 0.797702 -0.838578 -5.344044 4.411485 5.102778 15.192784 11.277887 -13.973338 1.264132 0.000000 -0.000000 0.000000 -0.027863 2.292715 1.515678 0.608569 -6.114488 -7.440370 -1.263783 0.493944 5.630291 -12.882974 -5.616757 47.915725 3.885544 -8.947913 7.851312 40.920961 -15.627262 -26.552801 37.490209 -42.380234 -55.167227 26.229993 -3.005835 -36.639370 -20.165936 -0.049176 2.441863 -41.891230 10.183979 -25.864349 -18.577232 34.439379 -44.506742 -24.181920 11.697267 -38.956100 31.418523 2.382437 -17.676678 
0.003180 -0.849079 1.147831 3.595890 6.312957 38.836553 -2.664371 -4.787781 -6.881012 -6.144881 -4.297566 25.776299 -0.287661 19.556455 -7.632767 0.000000 -0.000000 0.000000 0.735544 -0.423409 -5.778794 3.213698 4.724048 20.453435 4.458458 -13.111994 -1.590557 0.000000 -0.000000 0.000000 0.274898 2.169350 2.871701 0.475989 -6.073682 -7.484103 -1.188101 0.929477 5.373813 -14.616737 -6.979369 45.927224 2.740646 -7.766796 11.183641 41.112745 -17.041426 -25.509450 35.988663 -40.534572 -55.619669 26.451659 -5.433795 -35.789369 -17.430188 0.064035 3.017111 -42.364927 10.793038 -26.122767 -18.779600 33.995864 -45.858458 -22.332627 12.020305 -36.678734 29.816867 2.348060 -16.579286 
0.002227 -0.816651 1.119321 3.496940 5.861429 40.121678 -2.555025 -4.583325 -8.289854 -7.193704 -2.271066 33.766995 0.642309 20.739821 -12.641212 0.000000 -0.000000 0.000000 -0.124543 -0.101811 -8.148274 4.177272 3.878957 29.486127 3.951259 -13.578305 -5.464283 0.000000 -0.000000 0.000000 0.510371 1.820856 4.119323 0.488207 -5.987089 -7.142355 -1.190252 0.865490 4.147773 -15.482773 -6.813609 45.845564 3.153142 -6.711906 11.096737 40.416485 -19.235686 -26.042421 36.053878 -39.881677 -56.089800 26.237939 -5.601899 -33.798557 -17.556553 0.622058 5.752930 -43.617271 12.124350 -26.901649 -17.736272 34.048509 -45.943234 -22.224342 11.010102 -36.528401 29.991472 1.830700 -12.670585 
0.000755 -0.777957 1.089784 3.526357 5.606931 41.396668 -2.578940 -3.805863 -9.449034 -7.664366 -0.749961 42.545111 1.977030 22.818745 -18.160550 0.000000 -0.000000 0.000000 -0.636671 -0.269088 -10.491851 4.306968 1.668130 39.420903 3.060252 -15.513450 -8.373208 0.000000 -0.000000 0.000000 0.688151 0.962749 5.463627 0.626088 -5.943917 -7.129719 -1.433726 1.226628 4.031653 -15.115906 -6.522857 44.957034 3.502683 -5.660964 11.730772 40.512501 -19.683675 -25.530466 35.767823 -39.120000 -56.834340 26.060274 -5.804734 -32.165199 -16.422551 -0.156124 5.841408 -43.407618 13.012724 -26.615027 -19.207133 34.103437 -48.081331 -21.284103 10.551348 -33.926989 24.901289 1.882881 -12.357711 
-0.000315 -0.733266 1.060809 2.880298 5.277349 43.190406 -1.707978 -4.108399 -10.022042 -8.329009 2.224361 50.630617 3.989115 26.633397 -25.884021 0.000000 -0.000000 0.000000 -0.521801 -0.292520 -12.473888 4.291906 0.080762 48.791640 -1.948204 -18.269977 -11.763827 0.000000 -0.000000 0.000000 1.146340 -0.101451 5.529970 -0.123522 -6.666420 -3.010598 -0.158269 1.923975 1.561239 -13.725130 -4.341928 46.588470 5.288039 -6.420487 6.051808 39.248464 -14.789007 -24.798822 36.071801 -42.248022 -61.823483 26.877079 -6.072276 -32.354338 -20.074579 1.289838 9.520611 -43.675790 12.809732 -27.141325 -19.428375 35.011767 -47.292887 -21.318275 11.105095 -33.008349 21.554242 5.642069 -9.987428 
-0.000813 -0.684085 1.033171 2.781647 4.988773 45.822653 -1.795255 -3.828418 -10.601480 -8.129167 3.326686 58.404359 4.968244 29.040384 -30.632126 0.000000 -0.000000 0.000000 -1.383901 -0.509287 -14.342563 3.809414 -2.449936 57.529086 -3.601281 -20.134047 -17.362281 0.000000 -0.000000 0.000000 1.571189 -0.667002 5.807028 -0.190377 -6.356611 -2.643734 -0.756698 1.733906 1.029186 -13.555393 -4.687416 45.866421 5.162107 -5.197968 7.425363 38.496093 -13.849902 -23.962497 36.025983 -43.152252 -62.504740 27.915427 -6.991121 -31.688641 -20.080381 1.857909 10.115086 -42.631004 12.477224 -27.065827 -19.870652 36.579023 -46.896750 -21.502330 10.904393 -31.541451 20.657579 6.139180 -10.518841 
-0.001290 -0.628735 1.007020 2.915573 4.820235 49.152822 -1.505070 -3.687452 -11.199920 -8.658673 4.284063 65.503359 4.792144 30.051077 -32.671330 0.000000 -0.000000 0.000000 -2.163769 -0.467664 -15.593625 2.900389 -4.218375 64.779697 -4.002911 -20.150530 -20.822945 0.000000 -0.000000 0.000000 1.644278 -0.982775 5.575323 -0.129983 -6.162347 -2.337538 -0.739927 1.497572 0.898704 -12.771881 -4.656259 46.072116 5.306344 -4.026481 6.772887 36.974093 -14.663217 -23.892931 37.334273 -42.766436 -63.245827 28.001413 -7.484991 -30.881996 -19.189149 1.539412 11.247555 -42.410096 13.313316 -26.934888 -20.434436 36.147166 -47.212893 -21.939370 11.375020 -30.932831 19.667528 6.837904 -10.932345 
-0.001048 -0.569697 0.982776 2.912883 4.513504 53.093694 -1.194214 -3.808524 -11.153134 -9.250003 5.195864 71.122683 4.980992 30.245044 -33.327354 0.000000 -0.000000 0.000000 -2.104294 -0.001743 -16.432637 2.699453 -4.980498 69.923387 -4.677037 -21.520018 -21.819152 0.000000 -0.000000 0.000000 1.735299 -1.288387 5.028608 0.008476 -6.049432 -2.192121 -0.858591 1.591308 0.284198 -12.509764 -4.675184 45.671630 5.599079 -3.386355 7.381270 36.063196 -14.908070 -23.602370 37.174630 -42.844416 -62.981835 28.448111 -8.491632 -31.804471 -18.242330 1.708416 12.142660 -41.546716 13.981567 -26.547653 -21.572290 36.212928 -47.968154 -21.715405 11.581007 -30.827245 18.062206 7.112631 -9.269003 
-0.000272 -0.506711 0.960387 2.787568 4.196142 57.768564 -0.960148 -3.854823 -10.882646 -10.255209 5.423683 75.244308 5.208652 29.491451 -31.885180 0.000000 -0.000000 0.000000 -2.375985 0.284043 -16.988148 3.624757 -5.597751 73.563862 -4.674623 -20.169142 -22.689098 0.000000 -0.000000 0.000000 1.695600 -1.240859 3.804291 0.360132 -5.763151 -1.395438 -0.689054 1.300454 -0.797241 -11.943884 -4.960624 44.784174 5.087122 -3.067706 7.595318 35.120579 -15.212064 -24.159814 36.354582 -43.603077 -61.771167 29.274144 -9.206045 -31.118898 -17.259544 1.365891 12.315141 -41.435963 14.435859 -26.654364 -21.417651 36.176361 -47.120351 -21.865874 12.462551 -30.693818 15.843134 7.220264 -8.908793 
0.001090 -0.440113 0.940890 2.887073 4.041213 62.848068 -0.585198 -4.129729 -10.214976 -11.131925 5.484219 77.371344 4.706244 27.879874 -30.049706 0.000000 -0.000000 0.000000 -2.164529 0.286585 -16.723135 4.171063 -5.878112 75.208229 -4.181917 -18.766393 -22.581381 0.000000 -0.000000 0.000000 1.957673 -1.292352 2.430832 0.438914 -5.748267 -1.282495 -0.819564 1.342514 -1.112149 -11.070485 -5.357217 43.156290 4.808620 -2.782605 8.149830 34.736441 -15.896416 -23.891965 35.460981 -43.213837 -61.001429 31.022903 -11.058712 -32.509865 -16.555411 1.287230 13.318399 -40.774731 15.026334 -26.563172 -21.475957 36.055524 -47.067671 -23.002743 13.496684 -31.928421 16.201917 7.049018 -8.616160 
0.003608 -0.370314 0.923466 2.952336 3.484875 68.657998 -0.838615 -4.528479 -9.529038 -10.841892 5.565468 77.540378 5.351908 27.445877 -26.971705 0.000000 -0.000000 0.000000 -2.770920 0.252619 -16.520483 5.604816 -6.409601 74.859819 -3.941036 -17.650149 -21.731816 0.000000 -0.000000 0.000000 1.695432 -0.858888 0.453190 0.638695 -5.857372 -0.583764 -0.626742 1.369735 -1.964289 -10.724178 -5.765313 41.560641 4.975924 -2.525063 8.415386 33.702946 -16.402861 -24.165349 35.078040 -43.410608 -60.865836 32.166082 -12.929452 -33.505602 -14.895591 1.485642 14.597269 -40.098504 15.246707 -26.554783 -22.448292 36.512054 -47.366910 -23.426034 13.384887 -32.844265 14.348789 7.015826 -6.743874 
0.006790 -0.299381 0.910398 2.709341 3.077141 74.370193 -0.668289 -4.359129 -8.133100 -10.985218 5.258319 75.758626 4.849597 25.929118 -21.898219 0.000000 -0.000000 0.000000 -2.699365 0.363762 -15.445736 6.006301 -6.472026 73.148065 -2.981708 -16.188507 -19.974148 0.000000 -0.000000 0.000000 1.712946 -0.604124 -0.904804 0.713541 -5.623543 -0.739102 -0.448553 1.674186 -2.508788 -9.832759 -5.444659 39.628473 5.262471 -2.860409 8.467264 33.834572 -16.355581 -24.609259 33.852157 -43.853408 -59.488132 33.668074 -13.461137 -34.452311 -14.815685 1.003274 14.728722 -39.496526 15.473529 -27.102927 -22.927527 36.250049 -47.151685 -23.528406 13.829645 -33.809564 15.130510 7.243359 -6.193064 
0.009132 -0.227782 0.901641 2.995953 2.686858 80.165161 -0.379686 -4.439715 -6.540924 -11.223170 4.432769 72.288463 4.446208 23.426925 -14.940106 0.000000 -0.000000 0.000000 -2.431451 0.372801 -13.715586 6.991874 -5.687794 70.489020 -1.622622 -14.323823 -17.305936 0.000000 -0.000000 0.000000 1.540612 -0.493353 -2.654102 0.642026 -5.631762 -0.609467 -0.406499 1.725921 -2.948455 -9.467019 -5.544096 37.734927 5.412546 -2.903384 9.024408 33.821722 -17.660839 -24.639532 33.583984 -42.815265 -58.094258 34.781569 -14.319911 -34.395733 -13.019886 -0.307664 13.448131 -39.238190 16.086739 -26.684846 -22.966718 35.213825 -46.885691 -24.436570 14.724434 -34.357028 13.245920 6.891153 -4.988776 
